<svg width="67" height="67" viewBox="0 0 67 67" fill="none" xmlns="http://www.w3.org/2000/svg">
<rect width="67" height="67" rx="33.5" fill="#AD58F4"/>
<g clip-path="url(#clip0_436_313)">
<path d="M33.4998 18.9167C41.5542 18.9167 48.0832 25.4457 48.0832 33.5001C48.0832 41.5545 41.5542 48.0834 33.4998 48.0834C25.4455 48.0834 18.9165 41.5545 18.9165 33.5001C18.9165 25.4457 25.4455 18.9167 33.4998 18.9167ZM33.4998 24.7501C33.1131 24.7501 32.7421 24.9037 32.4686 25.1772C32.1951 25.4507 32.0415 25.8216 32.0415 26.2084V33.5001C32.0416 33.8868 32.1953 34.2577 32.4688 34.5311L36.8438 38.9061C37.1188 39.1718 37.4872 39.3188 37.8696 39.3154C38.252 39.3121 38.6177 39.1587 38.8881 38.8884C39.1585 38.618 39.3119 38.2522 39.3152 37.8698C39.3185 37.4875 39.1715 37.1191 38.9059 36.844L34.9582 32.8963V26.2084C34.9582 25.8216 34.8045 25.4507 34.531 25.1772C34.2575 24.9037 33.8866 24.7501 33.4998 24.7501Z" fill="white"/>
</g>
<defs>
<clipPath id="clip0_436_313">
<rect width="35" height="35" fill="white" transform="translate(16 16)"/>
</clipPath>
</defs>
</svg>
