<svg width="67" height="67" viewBox="0 0 67 67" fill="none" xmlns="http://www.w3.org/2000/svg">
<rect width="67" height="67" rx="33.5" fill="#AD58F4"/>
<g clip-path="url(#clip0_436_329)">
<path d="M33.5 16C43.1652 16 51 23.8348 51 33.5C51 43.1652 43.1652 51 33.5 51C23.8348 51 16 43.1652 16 33.5C16 23.8348 23.8348 16 33.5 16ZM33.5 18.4412C29.5062 18.4413 25.6759 20.0278 22.8519 22.8519C20.0278 25.6759 18.4413 29.5062 18.4412 33.5C18.4413 37.4938 20.0278 41.3241 22.8519 44.1481C25.6759 46.9722 29.5062 48.5588 33.5 48.5588C37.4938 48.5588 41.3241 46.9722 44.1481 44.1481C46.9722 41.3241 48.5588 37.4938 48.5588 33.5C48.5588 29.5062 46.9722 25.6759 44.1481 22.8519C41.3241 20.0278 37.4938 18.4413 33.5 18.4412ZM37.084 22.104C38.2217 22.5342 39.2856 23.1388 40.2375 23.896C40.4563 24.064 40.6663 24.2425 40.8728 24.4332C40.9113 24.4665 40.9445 24.5015 40.9812 24.5382C41.5553 25.0685 42.0767 25.6652 42.5387 26.3057C42.6035 26.395 42.6717 26.4772 42.7312 26.563C42.8433 26.7275 42.9482 26.899 43.0532 27.0705C43.2338 27.3598 43.4003 27.6576 43.552 27.963C43.6448 28.138 43.727 28.3287 43.8127 28.5142C43.8705 28.642 43.9352 28.7732 43.9878 28.9097C44.1155 29.2282 44.2293 29.5485 44.3325 29.8757C44.3658 29.9843 44.392 30.0998 44.4235 30.2083C44.601 30.8309 44.7269 31.4671 44.7998 32.1105C44.812 32.226 44.8295 32.3485 44.8382 32.4622C44.8733 32.8385 44.896 33.2183 44.896 33.5998C44.8938 34.3452 44.8252 35.0889 44.6912 35.8223C44.6667 35.95 44.6458 36.0795 44.6213 36.202C44.5512 36.5345 44.4708 36.86 44.3763 37.182C43.4855 36.7743 42.439 36.174 42.166 35.5142C41.669 34.3242 40.346 33.7292 39.807 32.1963C38.9198 29.6588 40.0975 29.7252 40.262 28.1502C40.339 27.4117 39.807 27.2577 39.1052 27.5588C37.4673 28.2465 36.9125 27.9823 36.5817 26.7485C36.251 25.5183 36.5817 25.1753 36.5817 25.1753C35.4653 25.2978 35.4233 23.938 36.0025 23.595C36.405 23.364 36.7463 22.6553 37.084 22.104ZM32.4045 29.6447C33.437 29.1722 34.3908 29.0025 34.2648 28.1905C34.1423 27.3872 33.8518 26.7887 32.2383 26.7887C30.6248 26.7887 31.3283 29.0025 30.0053 27.6813C28.6823 26.3688 30.294 26.7083 30.9555 26.409C31.6187 26.108 32.2803 24.8742 31.1217 24.7867C29.965 24.7045 30.2118 25.2977 29.3018 24.9618C28.3917 24.6187 27.9788 26.15 27.3977 25.9365C27.0162 25.793 25.9925 25.0055 25.3135 24.2303C23.928 25.4354 22.8311 26.9365 22.104 28.6227C22.3017 30.91 23.511 32.1105 23.511 32.1105C23.511 32.1105 24.1322 33.5997 27.8562 35.4303C27.8562 35.4303 28.5563 35.4722 27.7303 34.6235C26.9043 33.7712 25.9925 32.7073 27.0268 32.156C28.0592 31.5978 28.3515 31.645 28.6 32.6687C28.8467 33.6908 29.6763 33.0888 29.7568 32.1105C29.8407 31.1358 31.3702 30.1172 32.4045 29.6447ZM31.617 34.788C33.3985 34.788 33.2323 35.3427 34.6392 36.5817C36.0445 37.8137 35.3008 39.0475 34.5955 39.9855C33.8938 40.92 33.2725 41.9805 32.9417 43.902C32.6092 45.8165 31.7413 44.4515 31.4543 43.9843C31.1638 43.5135 30.7088 43.09 30.8348 41.1318C30.9573 39.1753 29.6325 40.3267 29.1793 37.7717C28.7242 35.2202 29.8408 34.7898 31.6188 34.7898M40.3285 36.4767C40.8028 36.174 41.9385 36.9633 41.6935 37.7945C41.4433 38.6258 40.6593 38.1568 40.2655 37.7945C39.8717 37.434 39.8507 36.7743 40.3285 36.4767Z" fill="white"/>
</g>
<defs>
<clipPath id="clip0_436_329">
<rect width="35" height="35" fill="white" transform="translate(16 16)"/>
</clipPath>
</defs>
</svg>
