<svg width="67" height="67" viewBox="0 0 67 67" fill="none" xmlns="http://www.w3.org/2000/svg">
<rect width="67" height="67" rx="33.5" fill="#AD58F4"/>
<path d="M26.9373 27.6667C28.0977 27.6667 29.2105 27.2058 30.0309 26.3853C30.8514 25.5649 31.3123 24.4521 31.3123 23.2917C31.3123 22.1314 30.8514 21.0186 30.0309 20.1982C29.2105 19.3777 28.0977 18.9167 26.9373 18.9167C25.777 18.9167 24.6642 19.3777 23.8437 20.1982C23.0233 21.0186 22.5623 22.1314 22.5623 23.2917C22.5623 24.4521 23.0233 25.5649 23.8437 26.3853C24.6642 27.2058 25.777 27.6667 26.9373 27.6667ZM18.9165 31.7034C18.9165 30.2772 20.07 29.1251 21.4948 29.1251H28.4467C27.9352 30.012 27.6661 31.0179 27.6665 32.0417C27.6665 32.8693 27.8425 33.6874 28.183 34.4418C28.5234 35.1961 29.0204 35.8693 29.6411 36.4167H28.0573C27.2354 36.4168 26.4331 36.6675 25.7574 37.1355C25.0817 37.6035 24.5649 38.2665 24.2759 39.0359C22.0913 38.5022 20.7365 37.3107 19.9388 35.9836C18.9165 34.2817 18.9165 32.5317 18.9165 32.227V31.7034ZM39.3332 32.0417C39.3336 31.0179 39.0645 30.012 38.553 29.1251H45.5048C46.9311 29.1251 48.0832 30.2786 48.0832 31.7034V32.2284C48.0832 32.5303 48.0832 34.2817 47.0623 35.9836C46.2632 37.3107 44.9084 38.5022 42.7238 39.0359C42.4348 38.2665 41.9179 37.6035 41.2423 37.1355C40.5666 36.6675 39.7643 36.4168 38.9423 36.4167H37.3586C37.9792 35.8693 38.4763 35.1961 38.8167 34.4418C39.1572 33.6874 39.3332 32.8693 39.3332 32.0417ZM44.4373 23.2917C44.4373 24.4521 43.9764 25.5649 43.1559 26.3853C42.3355 27.2058 41.2227 27.6667 40.0623 27.6667C38.902 27.6667 37.7892 27.2058 36.9687 26.3853C36.1483 25.5649 35.6873 24.4521 35.6873 23.2917C35.6873 22.1314 36.1483 21.0186 36.9687 20.1982C37.7892 19.3777 38.902 18.9167 40.0623 18.9167C41.2227 18.9167 42.3355 19.3777 43.1559 20.1982C43.9764 21.0186 44.4373 22.1314 44.4373 23.2917ZM25.479 40.4534C25.479 39.0272 26.6325 37.8751 28.0573 37.8751H38.9423C40.3671 37.8751 41.5207 39.0286 41.5207 40.4534V40.9784C41.5207 41.2803 41.5207 43.0317 40.4998 44.7336C39.4163 46.5332 37.3105 48.0834 33.4998 48.0834C29.6892 48.0834 27.5819 46.5332 26.4998 44.7336C25.479 43.0317 25.479 41.2817 25.479 40.977V40.4534ZM33.4998 36.4167C34.0744 36.4167 34.6433 36.3036 35.1741 36.0837C35.7049 35.8639 36.1872 35.5416 36.5934 35.1353C36.9997 34.7291 37.3219 34.2468 37.5418 33.716C37.7617 33.1852 37.8748 32.6163 37.8748 32.0417C37.8748 31.4672 37.7617 30.8983 37.5418 30.3675C37.3219 29.8367 36.9997 29.3544 36.5934 28.9482C36.1872 28.5419 35.7049 28.2196 35.1741 27.9998C34.6433 27.7799 34.0744 27.6667 33.4998 27.6667C32.3395 27.6667 31.2267 28.1277 30.4062 28.9482C29.5858 29.7686 29.1248 30.8814 29.1248 32.0417C29.1248 33.2021 29.5858 34.3149 30.4062 35.1353C31.2267 35.9558 32.3395 36.4167 33.4998 36.4167Z" fill="white"/>
</svg>
