<svg width="1240" height="146" viewBox="0 0 1240 146" fill="none" xmlns="http://www.w3.org/2000/svg">
<g clip-path="url(#clip0_126_1077)">
<rect x="20" y="14" width="2423" height="118" rx="8" fill="white"/>
<line x1="44.5" y1="38" x2="44.5" y2="108" stroke="#F1F1F3"/>
<path d="M59.5215 68.8001V77.2001H65.5215V68.8001H59.5215ZM81.7215 63.4001V65.9861L75.7215 71.3861V67.6001H66.7215V61.6001H79.9215C80.9175 61.6001 81.7215 62.4041 81.7215 63.4001ZM75.7215 74.6141L81.7215 80.0141V82.6001C81.7215 83.5961 80.9175 84.4001 79.9215 84.4001H66.7215V78.4001H75.7215V74.6141ZM65.5215 78.4001V84.4001H61.3215C60.3273 84.4001 59.5215 83.5943 59.5215 82.6001V78.4001H65.5215ZM65.5215 61.6001V67.6001H59.5215L65.5215 61.6001ZM75.7215 73.0001L81.7215 67.6001V78.4001L75.7215 73.0001ZM87.7215 63.5501V82.4501C87.7215 82.9721 87.1035 83.2481 86.7195 82.9001L82.9215 79.4801V66.5201L86.7195 63.1001C87.1035 62.7521 87.7215 63.0281 87.7215 63.5501Z" fill="#53465F"/>
<path d="M109.431 72.608V73.526C109.431 75.226 108.887 76.603 107.799 77.657C106.711 78.711 105.306 79.238 103.583 79.238C101.747 79.238 100.223 78.643 99.01 77.453C97.8086 76.2517 97.208 74.7897 97.208 73.067C97.208 71.333 97.803 69.8653 98.993 68.664C100.194 67.4627 101.679 66.862 103.447 66.862C104.558 66.862 105.572 67.117 106.49 67.627C107.408 68.1257 108.122 68.7943 108.632 69.633L106.626 70.789C106.343 70.3017 105.912 69.905 105.334 69.599C104.767 69.293 104.133 69.14 103.43 69.14C102.297 69.14 101.362 69.514 100.625 70.262C99.8996 70.9987 99.537 71.9337 99.537 73.067C99.537 74.189 99.9053 75.1183 100.642 75.855C101.39 76.5803 102.376 76.943 103.6 76.943C104.507 76.943 105.255 76.7447 105.844 76.348C106.445 75.94 106.853 75.3847 107.068 74.682H103.464V72.608H109.431ZM118.24 77.946C117.367 78.8073 116.302 79.238 115.044 79.238C113.786 79.238 112.72 78.8073 111.848 77.946C110.986 77.0733 110.556 76.008 110.556 74.75C110.556 73.492 110.986 72.4323 111.848 71.571C112.72 70.6983 113.786 70.262 115.044 70.262C116.302 70.262 117.367 70.6983 118.24 71.571C119.112 72.4323 119.549 73.492 119.549 74.75C119.549 76.008 119.112 77.0733 118.24 77.946ZM113.395 76.433C113.837 76.875 114.386 77.096 115.044 77.096C115.701 77.096 116.251 76.875 116.693 76.433C117.135 75.991 117.356 75.43 117.356 74.75C117.356 74.07 117.135 73.509 116.693 73.067C116.251 72.625 115.701 72.404 115.044 72.404C114.386 72.404 113.837 72.625 113.395 73.067C112.964 73.509 112.749 74.07 112.749 74.75C112.749 75.43 112.964 75.991 113.395 76.433ZM128.333 77.946C127.461 78.8073 126.395 79.238 125.137 79.238C123.879 79.238 122.814 78.8073 121.941 77.946C121.08 77.0733 120.649 76.008 120.649 74.75C120.649 73.492 121.08 72.4323 121.941 71.571C122.814 70.6983 123.879 70.262 125.137 70.262C126.395 70.262 127.461 70.6983 128.333 71.571C129.206 72.4323 129.642 73.492 129.642 74.75C129.642 76.008 129.206 77.0733 128.333 77.946ZM123.488 76.433C123.93 76.875 124.48 77.096 125.137 77.096C125.795 77.096 126.344 76.875 126.786 76.433C127.228 75.991 127.449 75.43 127.449 74.75C127.449 74.07 127.228 73.509 126.786 73.067C126.344 72.625 125.795 72.404 125.137 72.404C124.48 72.404 123.93 72.625 123.488 73.067C123.058 73.509 122.842 74.07 122.842 74.75C122.842 75.43 123.058 75.991 123.488 76.433ZM137.696 70.5H139.838V78.592C139.838 79.9067 139.402 80.9097 138.529 81.601C137.668 82.2923 136.625 82.638 135.401 82.638C134.483 82.638 133.673 82.4623 132.97 82.111C132.279 81.7597 131.746 81.244 131.372 80.564L133.242 79.493C133.673 80.2863 134.415 80.683 135.469 80.683C136.16 80.683 136.704 80.5017 137.101 80.139C137.498 79.7763 137.696 79.2607 137.696 78.592V77.674C137.05 78.5353 136.143 78.966 134.976 78.966C133.775 78.966 132.766 78.5467 131.95 77.708C131.145 76.858 130.743 75.8267 130.743 74.614C130.743 73.4127 131.151 72.387 131.967 71.537C132.783 70.687 133.786 70.262 134.976 70.262C136.143 70.262 137.05 70.6927 137.696 71.554V70.5ZM133.599 76.297C134.052 76.7277 134.625 76.943 135.316 76.943C136.007 76.943 136.574 76.7277 137.016 76.297C137.469 75.855 137.696 75.294 137.696 74.614C137.696 73.9453 137.469 73.3957 137.016 72.965C136.574 72.523 136.007 72.302 135.316 72.302C134.625 72.302 134.052 72.523 133.599 72.965C133.157 73.3957 132.936 73.9453 132.936 74.614C132.936 75.294 133.157 75.855 133.599 76.297ZM141.827 79V66.59H144.02V79H141.827ZM147.88 75.651C148.175 76.7163 148.974 77.249 150.277 77.249C151.116 77.249 151.75 76.9657 152.181 76.399L153.949 77.419C153.11 78.6317 151.875 79.238 150.243 79.238C148.838 79.238 147.71 78.813 146.86 77.963C146.01 77.113 145.585 76.042 145.585 74.75C145.585 73.4693 146.004 72.404 146.843 71.554C147.682 70.6927 148.758 70.262 150.073 70.262C151.32 70.262 152.345 70.6927 153.15 71.554C153.966 72.4153 154.374 73.4807 154.374 74.75C154.374 75.0333 154.346 75.3337 154.289 75.651H147.88ZM147.846 73.951H152.181C152.056 73.373 151.796 72.9423 151.399 72.659C151.014 72.3757 150.572 72.234 150.073 72.234C149.484 72.234 148.996 72.387 148.611 72.693C148.226 72.9877 147.971 73.407 147.846 73.951ZM171.902 67.1V79H169.573V71.282L166.224 76.807H165.952L162.603 71.299V79H160.257V67.1H162.671L166.088 72.727L169.488 67.1H171.902ZM175.87 75.651C176.165 76.7163 176.964 77.249 178.267 77.249C179.106 77.249 179.74 76.9657 180.171 76.399L181.939 77.419C181.1 78.6317 179.865 79.238 178.233 79.238C176.828 79.238 175.7 78.813 174.85 77.963C174 77.113 173.575 76.042 173.575 74.75C173.575 73.4693 173.994 72.404 174.833 71.554C175.672 70.6927 176.748 70.262 178.063 70.262C179.31 70.262 180.335 70.6927 181.14 71.554C181.956 72.4153 182.364 73.4807 182.364 74.75C182.364 75.0333 182.336 75.3337 182.279 75.651H175.87ZM175.836 73.951H180.171C180.046 73.373 179.786 72.9423 179.389 72.659C179.004 72.3757 178.562 72.234 178.063 72.234C177.474 72.234 176.986 72.387 176.601 72.693C176.216 72.9877 175.961 73.407 175.836 73.951ZM185.682 75.651C185.976 76.7163 186.775 77.249 188.079 77.249C188.917 77.249 189.552 76.9657 189.983 76.399L191.751 77.419C190.912 78.6317 189.677 79.238 188.045 79.238C186.639 79.238 185.512 78.813 184.662 77.963C183.812 77.113 183.387 76.042 183.387 74.75C183.387 73.4693 183.806 72.404 184.645 71.554C185.483 70.6927 186.56 70.262 187.875 70.262C189.121 70.262 190.147 70.6927 190.952 71.554C191.768 72.4153 192.176 73.4807 192.176 74.75C192.176 75.0333 192.147 75.3337 192.091 75.651H185.682ZM185.648 73.951H189.983C189.858 73.373 189.597 72.9423 189.201 72.659C188.815 72.3757 188.373 72.234 187.875 72.234C187.285 72.234 186.798 72.387 186.413 72.693C186.027 72.9877 185.772 73.407 185.648 73.951ZM198.32 72.608H196.399V76.144C196.399 76.4387 196.472 76.654 196.62 76.79C196.767 76.926 196.982 77.0053 197.266 77.028C197.549 77.0393 197.9 77.0337 198.32 77.011V79C196.812 79.17 195.747 79.0283 195.124 78.575C194.512 78.1217 194.206 77.3113 194.206 76.144V72.608H192.727V70.5H194.206V68.783L196.399 68.12V70.5H198.32V72.608Z" fill="#53465F"/>
<line x1="214.143" y1="38" x2="214.143" y2="108" stroke="#F1F1F3"/>
<g clip-path="url(#clip1_126_1077)">
<path fill-rule="evenodd" clip-rule="evenodd" d="M316.377 70.0166C316.596 70.3932 316.667 70.8217 316.691 71.3034L316.722 71.9455V76.4353L316.753 77.078C316.817 78.1277 317.591 78.9039 318.648 78.9699L319.288 79.0016V71.9455L319.319 71.3034C319.346 70.8271 319.416 70.3905 319.638 70.0112C319.864 69.6221 320.188 69.2994 320.578 69.0752C320.968 68.8511 321.411 68.7336 321.86 68.7344C322.31 68.7352 322.752 68.8544 323.141 69.0799C323.531 69.3054 323.854 69.6294 324.078 70.0193C324.296 70.3959 324.364 70.8325 324.391 71.3034L324.422 71.9435V76.4353L324.454 77.078C324.52 78.1331 325.288 78.9092 326.349 78.9699L326.989 79.0016V71.3034C326.989 69.9422 326.448 68.6367 325.486 67.674C324.523 66.7112 323.218 66.1701 321.857 66.1696C321.128 66.1688 320.408 66.3235 319.744 66.6234C319.08 66.9233 318.487 67.3614 318.006 67.9085C317.525 67.3616 316.933 66.9236 316.269 66.6236C315.605 66.3237 314.884 66.1686 314.156 66.1689C313.09 66.1689 312.101 66.4923 311.282 67.0508C310.782 66.493 309.663 66.1689 309.021 66.1689V79.0016L309.663 78.9699C310.737 78.8991 311.514 78.1439 311.555 77.078L311.59 76.4353V71.9455L311.621 71.3034C311.648 70.819 311.716 70.3932 311.935 70.0139C312.161 69.6251 312.485 69.3024 312.875 69.078C313.264 68.8536 313.706 68.7354 314.156 68.7352C314.606 68.7352 315.048 68.8537 315.438 69.0786C315.828 69.3035 316.152 69.627 316.377 70.0166ZM272.448 78.9706L273.09 79.0016H282.714L282.682 78.3615C282.595 77.3064 281.848 76.5357 280.79 76.467L280.148 76.4353H274.374L282.072 68.7345L282.04 68.0951C281.99 67.0292 281.212 66.2592 280.148 66.2006L279.506 66.1716L269.881 66.1689L269.913 66.811C269.997 67.8559 270.755 68.6428 271.805 68.7035L272.448 68.7352H278.222L270.523 76.436L270.555 77.078C270.618 78.1358 271.382 78.9018 272.448 78.9699V78.9706ZM306.502 68.0473C307.098 68.6431 307.571 69.3504 307.893 70.1289C308.216 70.9074 308.382 71.7419 308.382 72.5845C308.382 73.4272 308.216 74.2616 307.893 75.0402C307.571 75.8187 307.098 76.526 306.502 77.1218C305.298 78.3248 303.666 79.0006 301.964 79.0006C300.262 79.0006 298.63 78.3248 297.426 77.1218C294.92 74.6162 294.92 70.5529 297.426 68.0473C298.021 67.4517 298.728 66.9792 299.506 66.6568C300.284 66.3344 301.118 66.1683 301.96 66.1682C302.803 66.1676 303.639 66.3333 304.418 66.6559C305.198 66.9784 305.906 67.4515 306.502 68.0479V68.0473ZM304.687 69.8643C305.408 70.5866 305.814 71.5659 305.814 72.5869C305.814 73.6079 305.408 74.5872 304.687 75.3095C303.964 76.0312 302.985 76.4366 301.964 76.4366C300.943 76.4366 299.964 76.0312 299.241 75.3095C298.52 74.5872 298.114 73.6079 298.114 72.5869C298.114 71.5659 298.52 70.5866 299.241 69.8643C299.964 69.1426 300.943 68.7372 301.964 68.7372C302.985 68.7372 303.964 69.1426 304.687 69.8643ZM288.493 66.1682C289.336 66.1684 290.169 66.3346 290.947 66.6571C291.725 66.9796 292.432 67.4522 293.028 68.0479C295.534 70.5529 295.534 74.6169 293.028 77.1218C291.824 78.3248 290.191 79.0006 288.489 79.0006C286.787 79.0006 285.155 78.3248 283.951 77.1218C281.445 74.6162 281.445 70.5529 283.951 68.0473C284.546 67.4517 285.253 66.9792 286.031 66.6568C286.809 66.3344 287.643 66.1683 288.485 66.1682H288.493ZM291.212 69.863C291.934 70.5853 292.339 71.5647 292.339 72.5859C292.339 73.6071 291.934 74.5865 291.212 75.3088C290.49 76.0305 289.51 76.4359 288.489 76.4359C287.468 76.4359 286.489 76.0305 285.767 75.3088C285.045 74.5865 284.64 73.6073 284.64 72.5862C284.64 71.5652 285.045 70.5859 285.767 69.8637C286.489 69.1419 287.468 68.7365 288.489 68.7365C289.51 68.7365 290.49 69.1419 291.212 69.8637V69.863Z" fill="#53465F"/>
</g>
<line x1="383.786" y1="38" x2="383.786" y2="108" stroke="#F1F1F3"/>
<g clip-path="url(#clip2_126_1077)">
<path d="M439.568 59.7959C432.803 59.7959 427.318 65.2805 427.318 72.046C427.318 78.8117 432.803 84.2959 439.568 84.2959C446.334 84.2959 451.818 78.8117 451.818 72.046C451.818 65.2809 446.334 59.7965 439.568 59.7965L439.568 59.7959ZM445.186 77.464C444.967 77.8239 444.496 77.938 444.136 77.7171C441.259 75.9602 437.639 75.5623 433.374 76.5366C432.964 76.6302 432.554 76.3727 432.46 75.9617C432.366 75.5506 432.623 75.141 433.035 75.0474C437.701 73.9813 441.704 74.4403 444.933 76.4137C445.293 76.6346 445.407 77.1042 445.186 77.464ZM446.685 74.1285C446.409 74.5778 445.821 74.7197 445.372 74.4433C442.079 72.4193 437.059 71.8331 433.165 73.0154C432.66 73.168 432.126 72.8833 431.973 72.3791C431.821 71.8739 432.105 71.3415 432.61 71.1879C437.059 69.838 442.589 70.4919 446.371 72.8156C446.82 73.092 446.962 73.6801 446.685 74.1286V74.1285ZM446.814 70.6551C442.866 68.31 436.352 68.0944 432.582 69.2385C431.977 69.4221 431.337 69.0804 431.153 68.475C430.97 67.8694 431.311 67.2297 431.917 67.0457C436.244 65.7321 443.438 65.9859 447.984 68.6844C448.529 69.0075 448.708 69.7107 448.384 70.2544C448.062 70.7989 447.357 70.9784 446.815 70.6551H446.814ZM460.647 71.1045C458.531 70.6001 458.155 70.2461 458.155 69.5022C458.155 68.7995 458.817 68.3266 459.801 68.3266C460.755 68.3266 461.7 68.6857 462.692 69.425C462.721 69.4474 462.759 69.4563 462.796 69.4505C462.834 69.4449 462.866 69.4246 462.888 69.394L463.921 67.9382C463.963 67.8782 463.951 67.7956 463.894 67.7498C462.714 66.8029 461.385 66.3425 459.832 66.3425C457.548 66.3425 455.952 67.7131 455.952 69.674C455.952 71.7768 457.329 72.5214 459.708 73.0961C461.731 73.5623 462.073 73.9529 462.073 74.651C462.073 75.4248 461.382 75.9061 460.271 75.9061C459.036 75.9061 458.028 75.4892 456.902 74.5149C456.874 74.4901 456.836 74.4798 456.801 74.4813C456.763 74.4842 456.729 74.5018 456.706 74.5296L455.547 75.9076C455.499 75.9661 455.505 76.0509 455.56 76.1007C456.871 77.2709 458.483 77.8882 460.224 77.8882C462.684 77.8882 464.275 76.5439 464.275 74.4623C464.279 72.7059 463.227 71.7331 460.651 71.1064L460.647 71.1045ZM469.842 69.0185C468.776 69.0185 467.901 69.4386 467.178 70.2995V69.3305C467.178 69.254 467.117 69.1917 467.041 69.1917H465.146C465.07 69.1917 465.009 69.254 465.009 69.3305V80.0971C465.009 80.1732 465.07 80.2361 465.146 80.2361H467.041C467.117 80.2361 467.178 80.1732 467.178 80.0971V76.699C467.901 77.5079 468.776 77.9043 469.842 77.9043C471.824 77.9043 473.831 76.3786 473.831 73.4618C473.834 70.5445 471.827 69.0183 469.844 69.0183L469.842 69.0185ZM471.628 73.4618C471.628 74.9465 470.714 75.9836 469.403 75.9836C468.109 75.9836 467.131 74.8997 467.131 73.4618C467.131 72.0239 468.109 70.9402 469.403 70.9402C470.692 70.9401 471.628 72.0003 471.628 73.4617V73.4618ZM478.973 69.0185C476.42 69.0185 474.421 70.984 474.421 73.4936C474.421 75.9763 476.407 77.9204 478.942 77.9204C481.504 77.9204 483.509 75.9617 483.509 73.4618C483.509 70.9705 481.517 69.0188 478.973 69.0188V69.0185ZM478.973 75.9983C477.616 75.9983 476.592 74.907 476.592 73.4611C476.592 72.0087 477.58 70.9547 478.942 70.9547C480.309 70.9547 481.339 72.0455 481.339 73.4929C481.339 74.945 480.344 75.9983 478.973 75.9983ZM488.96 69.1917H486.875V67.0609C486.875 66.9846 486.814 66.9222 486.738 66.9222H484.843C484.767 66.9222 484.704 66.9846 484.704 67.0609V69.1917H483.795C483.719 69.1917 483.657 69.254 483.657 69.3305V70.9582C483.657 71.0346 483.719 71.097 483.795 71.097H484.704V75.3093C484.704 77.0105 485.551 77.8736 487.224 77.8736C487.902 77.8736 488.465 77.7332 488.996 77.4318C489.04 77.4084 489.067 77.3616 489.067 77.3119V75.7613C489.067 75.7145 489.042 75.6691 489.001 75.6443C488.96 75.6179 488.909 75.6165 488.866 75.6384C488.502 75.8213 488.149 75.9061 487.755 75.9061C487.147 75.9061 486.875 75.6296 486.875 75.0123V71.0978H488.96C489.036 71.0978 489.097 71.0354 489.097 70.9589V69.3314C489.1 69.2549 489.039 69.1926 488.961 69.1926L488.96 69.1917ZM496.221 69.2V68.9383C496.221 68.1684 496.517 67.8251 497.178 67.8251C497.573 67.8251 497.891 67.9035 498.246 68.022C498.29 68.0358 498.335 68.0289 498.37 68.0027C498.407 67.9765 498.427 67.9345 498.427 67.8901V66.2941C498.427 66.2331 498.389 66.1791 498.329 66.1611C497.955 66.0495 497.475 65.935 496.755 65.935C495.007 65.935 494.081 66.9201 494.081 68.7827V69.1835H493.171C493.095 69.1835 493.032 69.2458 493.032 69.3222V70.9582C493.032 71.0346 493.095 71.097 493.171 71.097H494.081V77.5927C494.081 77.6703 494.144 77.7317 494.22 77.7317H496.113C496.191 77.7317 496.252 77.6703 496.252 77.5927V71.0975H498.021L500.73 77.5927C500.423 78.2744 500.12 78.4105 499.707 78.4105C499.374 78.4105 499.021 78.311 498.663 78.1135C498.629 78.096 498.588 78.093 498.553 78.1033C498.517 78.1164 498.486 78.1428 498.471 78.1779L497.829 79.5866C497.798 79.6539 497.825 79.7314 497.889 79.7665C498.559 80.1293 499.163 80.2844 499.911 80.2844C501.309 80.2844 502.083 79.6319 502.763 77.8795L506.049 69.3896C506.066 69.3469 506.06 69.2986 506.034 69.2607C506.009 69.2231 505.967 69.2005 505.921 69.2005H503.95C503.89 69.2005 503.837 69.2381 503.818 69.2935L501.798 75.062L499.586 69.2897C499.565 69.236 499.514 69.2005 499.457 69.2005H496.221V69.2ZM492.011 69.1917H490.117C490.041 69.1917 489.978 69.254 489.978 69.3305V77.5927C489.978 77.6703 490.041 77.7317 490.117 77.7317H492.011C492.087 77.7317 492.15 77.6703 492.15 77.5927V69.3311C492.15 69.2546 492.089 69.1923 492.011 69.1923V69.1917ZM491.075 65.4294C490.325 65.4294 489.716 66.0368 489.716 66.7871C489.716 67.5378 490.325 68.1459 491.075 68.1459C491.826 68.1459 492.433 67.5378 492.433 66.7871C492.433 66.0369 491.824 65.4294 491.075 65.4294ZM507.667 71.8483C506.918 71.8483 506.334 71.2464 506.334 70.5154C506.334 69.7844 506.925 69.1756 507.674 69.1756C508.423 69.1756 509.007 69.7774 509.007 70.5078C509.007 71.2388 508.416 71.8483 507.667 71.8483ZM507.674 69.3081C506.991 69.3081 506.474 69.8508 506.474 70.5154C506.474 71.1797 506.988 71.7151 507.667 71.7151C508.35 71.7151 508.866 71.1728 508.866 70.5078C508.866 69.8435 508.353 69.3081 507.674 69.3081ZM507.969 70.6449L508.347 71.1727H508.028L507.689 70.6885H507.397V71.1727H507.131V69.7736H507.754C508.081 69.7736 508.294 69.9399 508.294 70.2199C508.296 70.4493 508.163 70.5894 507.971 70.6449H507.969ZM507.744 70.0137H507.397V70.4562H507.744C507.917 70.4562 508.021 70.3715 508.021 70.2347C508.021 70.0907 507.917 70.0137 507.744 70.0137Z" fill="#53465F"/>
</g>
<line x1="553.429" y1="38" x2="553.429" y2="108" stroke="#F1F1F3"/>
<line x1="553.429" y1="38" x2="553.429" y2="108" stroke="#F1F1F3"/>
<g clip-path="url(#clip3_126_1077)">
<path d="M626.337 78.2851V69.7946H626.489L632.669 78.2851H634.614V65.8168H632.453V74.2858H632.302L626.121 65.8168H624.177V78.2851H626.337ZM640.729 78.4776C643.582 78.4776 645.332 76.6383 645.332 73.5587C645.332 70.5004 643.582 68.6398 640.729 68.6398C637.898 68.6398 636.126 70.5004 636.126 73.5587C636.148 76.6383 637.877 78.4776 640.729 78.4776ZM640.729 76.6811C639.217 76.6811 638.352 75.5476 638.352 73.5587C638.352 71.5911 639.217 70.4362 640.729 70.4362C642.242 70.4362 643.106 71.5911 643.106 73.5587C643.106 75.5476 642.242 76.6811 640.729 76.6811ZM647.298 66.5225V68.8964H645.786V70.6073H647.298V75.7615C647.298 77.6007 648.163 78.3279 650.367 78.3279C650.777 78.3279 651.188 78.2851 651.512 78.2209V76.5528C651.253 76.5742 651.08 76.5956 650.777 76.5956C649.87 76.5956 649.459 76.1892 649.459 75.2482V70.6073H651.512V68.8964H649.459V66.5225H647.298ZM652.809 78.2851H654.97V68.8323H652.809V78.2851ZM653.889 67.271C654.602 67.271 655.186 66.6936 655.186 65.9878C655.186 65.2607 654.602 64.6833 653.889 64.6833C653.176 64.6833 652.593 65.2607 652.593 65.9878C652.593 66.6936 653.176 67.271 653.889 67.271ZM660.891 78.4776C663.743 78.4776 665.493 76.6383 665.493 73.5587C665.493 70.5004 663.743 68.6398 660.891 68.6398C658.06 68.6398 656.288 70.5004 656.288 73.5587C656.288 76.6383 658.016 78.4776 660.891 78.4776ZM660.891 76.6811C659.378 76.6811 658.514 75.5476 658.514 73.5587C658.514 71.5911 659.378 70.4362 660.891 70.4362C662.382 70.4362 663.268 71.5911 663.268 73.5587C663.246 75.5476 662.382 76.6811 660.891 76.6811ZM666.768 78.2851H668.929V72.7888C668.929 71.3986 669.75 70.5218 671.025 70.5218C672.343 70.5218 672.948 71.2489 672.948 72.6818V78.2851H675.109V72.1685C675.109 69.9016 673.942 68.6398 671.825 68.6398C670.399 68.6398 669.448 69.2814 668.994 70.3507H668.843V68.8323H666.747C666.768 68.8323 666.768 78.2851 666.768 78.2851Z" fill="#53465F"/>
<path fill-rule="evenodd" clip-rule="evenodd" d="M603.457 65.0187C604.086 65.5261 604.313 65.486 605.491 65.4059L616.584 64.7383C616.825 64.7383 616.625 64.498 616.544 64.4713L614.698 63.1494C614.35 62.8824 613.868 62.5619 612.971 62.642L602.239 63.4298C601.851 63.4699 601.771 63.6702 601.932 63.817L603.457 65.0187ZM604.126 67.5957V79.2388C604.126 79.8663 604.434 80.0933 605.143 80.0533L617.334 79.3456C618.043 79.3056 618.123 78.8783 618.123 78.3709V66.8079C618.123 66.3005 617.923 66.0201 617.494 66.0602L604.755 66.8079C604.287 66.848 604.126 67.0883 604.126 67.5957ZM616.156 68.2232C616.237 68.5704 616.156 68.9309 615.808 68.971L615.22 69.0911V77.6899C614.711 77.957 614.243 78.1172 613.841 78.1172C613.212 78.1172 613.052 77.9169 612.583 77.3294L608.743 71.3076V77.1291L609.961 77.3962C609.961 77.3962 609.961 78.1039 608.984 78.1039L606.281 78.2641C606.2 78.1039 606.281 77.7166 606.548 77.6365L607.257 77.4362V69.7454L606.281 69.6653C606.2 69.3181 606.401 68.8107 606.95 68.7707L609.853 68.5704L613.855 74.659V69.2781L612.838 69.1579C612.757 68.7306 613.078 68.4102 613.467 68.3701L616.156 68.2232ZM601.343 62.3616L612.516 61.5472C613.881 61.427 614.243 61.5071 615.099 62.1347L618.659 64.6315C619.247 65.0588 619.448 65.179 619.448 65.6463V79.359C619.448 80.2135 619.14 80.7209 618.043 80.801L605.076 81.5888C604.247 81.6288 603.858 81.5087 603.43 80.9612L600.794 77.5564C600.326 76.9289 600.125 76.4615 600.125 75.9141V63.7236C600.125 63.0159 600.446 62.4418 601.343 62.3616Z" fill="#53465F"/>
</g>
<line x1="723.071" y1="38" x2="723.071" y2="108" stroke="#F1F1F3"/>
<g clip-path="url(#clip4_126_1077)">
<path d="M777.139 61.5H768.602V81.9167L777.139 61.5Z" fill="#53465F"/>
<path d="M783.145 61.5H791.671V81.9167L783.145 61.5Z" fill="#53465F"/>
<path d="M780.142 69.0249L785.575 81.9167H782.01L780.386 77.8122H776.41L780.142 69.0249Z" fill="#53465F"/>
<path d="M805.599 74.4827L806.606 77.3692C806.639 77.4415 806.689 77.4749 806.778 77.4749H808.714C808.819 77.4749 808.836 77.4248 808.819 77.3191L804.82 66.2126C804.804 66.1236 804.787 66.1069 804.698 66.1069H802.295C802.229 66.1069 802.19 66.157 802.19 66.2293C802.156 66.8133 802.106 66.9912 802.034 67.1636L798.469 77.3025C798.452 77.4248 798.491 77.4749 798.591 77.4749H800.321C800.427 77.4749 800.477 77.4415 800.516 77.3358L801.467 74.4827H805.599ZM802.017 72.5973C802.54 71.0178 803.23 68.9934 803.508 67.8366H803.525C803.869 69.049 804.681 71.4516 805.048 72.5973H802.017Z" fill="#53465F"/>
<path d="M813.96 77.6466C815 77.6466 816.107 77.4576 817.23 76.9737C817.319 76.9403 817.336 76.9014 817.336 76.818C817.302 76.5065 817.263 76.056 817.263 75.7112V65.2554C817.263 65.1886 817.263 65.1553 817.18 65.1553H815.295C815.222 65.1553 815.189 65.1886 815.189 65.2776V68.8204C814.894 68.787 814.688 68.7703 814.444 68.7703C811.401 68.7703 809.533 70.7781 809.533 73.2863C809.533 76.1951 811.451 77.6466 813.96 77.6466ZM815.189 75.7112C814.877 75.8113 814.533 75.8502 814.182 75.8502C812.803 75.8502 811.674 75.0716 811.674 73.1807C811.674 71.5066 812.836 70.5167 814.377 70.5167C814.688 70.5167 814.961 70.55 815.189 70.639V75.7112Z" fill="#53465F"/>
<path d="M823.349 68.7712C820.752 68.7712 819.145 70.7623 819.145 73.2205C819.145 75.4174 820.424 77.6476 823.31 77.6476C825.752 77.6476 827.465 75.8512 827.465 73.1649C827.465 70.7957 826.013 68.7712 823.349 68.7712ZM823.243 70.5176C824.712 70.5176 825.335 71.7801 825.335 73.2205C825.335 75.0002 824.417 75.8845 823.349 75.8845C822.031 75.8845 821.252 74.7778 821.252 73.1816C821.252 71.5409 822.081 70.5176 823.243 70.5176Z" fill="#53465F"/>
<path d="M829.415 65.1553C829.343 65.1553 829.292 65.1886 829.292 65.2776V77.1127C829.292 77.1628 829.343 77.2518 829.415 77.2685C830.244 77.5243 831.111 77.6466 832.007 77.6466C834.57 77.6466 837.062 76.056 837.062 72.8525C837.062 70.5333 835.471 68.7703 832.98 68.7703C832.407 68.7703 831.873 68.8593 831.406 69.015L831.384 65.2943C831.384 65.172 831.35 65.1553 831.228 65.1553H829.415ZM834.932 73.0639C834.932 74.9826 833.619 75.8836 832.201 75.8836C831.906 75.8836 831.645 75.8669 831.406 75.7946V70.7447C831.678 70.639 832.007 70.55 832.613 70.55C833.981 70.55 834.932 71.4176 834.932 73.0639Z" fill="#53465F"/>
<path d="M844.098 73.6877C844.944 73.6877 845.639 73.671 845.878 73.6154C845.967 73.5987 846 73.5653 846.017 73.493C846.067 73.304 846.089 72.9091 846.089 72.4252C846.089 70.779 845.099 68.7712 842.541 68.7712C839.927 68.7712 838.476 70.9013 838.476 73.304C838.476 75.434 839.599 77.6476 842.747 77.6476C843.926 77.6476 844.688 77.4585 845.344 77.147C845.411 77.1137 845.444 77.058 845.444 76.9579V75.5175C845.444 75.434 845.394 75.4174 845.344 75.4507C844.688 75.7288 843.976 75.8679 843.197 75.8679C841.434 75.8679 840.633 74.8946 840.583 73.6877H844.098ZM840.583 72.1972C840.722 71.3518 841.256 70.4342 842.452 70.4342C843.77 70.4342 844.115 71.5409 844.115 72.0415C844.115 72.0582 844.115 72.1305 844.115 72.1805C844.043 72.1972 843.82 72.1972 843.164 72.1972H840.583Z" fill="#53465F"/>
</g>
<line x1="892.714" y1="38" x2="892.714" y2="108" stroke="#F1F1F3"/>
<g clip-path="url(#clip5_126_1077)">
<path d="M977.791 69.0922C977.859 67.7797 978.33 66.707 979.065 65.87V64.7553H978.088C976.112 64.7553 974.44 65.5126 973.467 67.2232H973.41V64.9434H968.343V78.8461H973.411V73.2336C973.411 70.8514 974.108 69.0354 976.921 69.0354C977.227 69.0375 977.514 69.055 977.791 69.0922ZM1016.16 69.0415C1016.58 67.8128 1017.27 66.7184 1018.15 65.8403V64.7542H1017.18C1015.2 64.7542 1013.53 65.5111 1012.55 67.221H1012.5V64.9434H1007.43V78.8461H1012.5V73.2336C1012.5 70.8514 1013.2 69.0354 1016.01 69.0354L1016.16 69.0415ZM988.083 68.5202C987.302 68.1138 986.213 67.8427 985.348 67.8427C984.766 67.8427 983.762 68.0847 983.762 68.7912C983.762 69.7406 985.348 69.8751 986.049 70.0138C988.411 70.4732 990.198 71.5582 990.198 74.1294C990.198 77.7869 986.772 79.3094 983.455 79.3094C981.42 79.3094 979.419 78.7395 977.689 77.7092L979.527 74.265C980.557 74.9724 982.284 75.6746 983.538 75.6746C984.179 75.6746 985.125 75.3778 985.125 74.6187C985.125 73.5346 983.538 73.4777 981.948 73.0722C980.362 72.6657 978.776 71.9086 978.776 69.4149C978.776 65.9995 981.948 64.4843 985.074 64.4843C986.689 64.4843 988.306 64.7271 989.779 65.3779L988.083 68.5202ZM1033.35 78.8461H1028.29V77.2995H1028.23C1027.34 78.6816 1025.58 79.3041 1023.91 79.3041C1019.68 79.3041 1016.7 75.8619 1016.7 71.8776C1016.7 67.8974 1019.62 64.481 1023.86 64.481C1025.5 64.481 1027.23 65.0769 1028.29 66.2953V64.9434H1033.35L1033.35 78.8461H1033.35ZM1021.93 71.9075C1021.93 73.668 1023.13 75.0232 1025.19 75.0232C1027.25 75.0232 1028.45 73.6702 1028.45 71.9075C1028.45 70.2 1027.25 68.7641 1025.19 68.7641C1023.13 68.7654 1021.93 70.2 1021.93 71.9075ZM1006.63 72.7226H995.959C995.959 74.7264 997.048 75.8092 999.136 75.8092C1000.22 75.8092 1001 75.4585 1001.56 74.536H1006.44C1005.63 77.8158 1002.42 79.3063 999.165 79.3063C994.433 79.3063 990.896 76.7028 990.896 71.9086C990.896 67.2749 994.151 64.4843 998.802 64.4843C1003.76 64.4843 1006.63 67.4663 1006.63 72.2066L1006.63 72.7228L1006.63 72.7226ZM1001.92 69.8751C1001.67 68.5471 1000.42 67.6802 999.054 67.6802C997.576 67.6802 996.355 68.4364 996.044 69.8751H1001.92ZM952.222 71.6656C952.216 71.5468 952.209 71.4282 952.199 71.3097V71.3055C952.085 70.0158 951.659 68.8087 950.936 67.7185C950.618 67.2379 950.247 66.794 949.831 66.3946C949.228 65.8143 948.53 65.3343 947.743 64.9548C946.559 64.3891 945.25 64.1036 943.854 64.1036C943.717 64.1036 943.575 64.1056 943.431 64.1109C942.45 64.1553 941.502 64.3414 940.61 64.6693C939.711 64.9942 938.928 65.4234 938.288 65.9385C938.158 66.042 938.016 66.1691 937.864 66.3089L937.754 66.4163L937.604 66.5755H937.606L937.536 66.6449L937.502 66.682L937.323 66.8704C937.194 67.0154 937.069 67.1634 936.947 67.3142L936.946 67.312L936.941 67.3079C936.696 67.6058 936.47 67.914 936.303 68.1912C936.19 68.3702 936.08 68.5516 935.974 68.7352L934.513 71.6905L934.515 71.6925L934.438 71.8426L934.277 72.1694C933.956 72.818 933.613 73.4644 933.229 73.9981C932.374 74.9361 931.407 75.3955 930.163 75.3955C930.076 75.3955 929.988 75.3911 929.897 75.3861C929.148 75.3561 928.505 75.1794 927.935 74.8421C927.875 74.8066 927.816 74.7694 927.758 74.7305C927.293 74.4212 926.936 74.0239 926.669 73.5285C926.368 72.9667 926.235 72.3927 926.254 71.7846C926.255 71.768 926.256 71.7535 926.256 71.74C926.296 70.772 926.665 70.0189 927.409 69.3683C927.586 69.2165 927.776 69.0805 927.977 68.9619C928.005 68.9452 928.033 68.9297 928.061 68.9153C928.613 68.6143 929.242 68.4644 929.963 68.4644L930.187 68.4705C931.332 68.5141 932.216 68.8719 932.92 69.57L935.129 65.6034C934.601 65.2497 934.004 64.9454 933.346 64.6982C933.321 64.689 933.295 64.6785 933.269 64.6704C933.191 64.6424 933.113 64.6135 933.033 64.5875C932.333 64.3539 931.6 64.2102 930.845 64.145C930.826 64.1417 930.806 64.1397 930.787 64.1378C930.671 64.1303 930.553 64.1159 930.438 64.1109C930.312 64.106 930.186 64.1033 930.06 64.1025H929.988C928.599 64.1076 927.309 64.3922 926.128 64.9557C924.806 65.5929 923.735 66.5208 922.94 67.7163C922.148 68.9124 921.716 70.2396 921.654 71.6639C921.649 71.7845 921.646 71.9052 921.646 72.0259C921.644 74.0176 922.371 75.7698 923.814 77.2407C925.322 78.7839 927.282 79.6156 929.635 79.7139C929.786 79.72 929.935 79.7241 930.084 79.7241C931.415 79.7241 932.647 79.4872 933.751 79.0136C934.028 78.8955 934.296 78.757 934.569 78.603C934.719 78.5171 934.859 78.4261 934.999 78.3289L935.102 78.2596L935.276 78.1406C935.483 77.9904 935.682 77.8284 935.871 77.6554L935.937 77.5924C936.049 77.4867 936.159 77.3784 936.266 77.2676L936.662 76.8198L936.813 76.6304L936.883 76.5271L936.954 76.4256C937.542 75.4369 939.458 71.8384 939.458 71.8384V71.8312L939.572 71.6118L939.667 71.4401C939.949 70.926 940.153 70.5609 940.423 70.1772L940.43 70.1659C941.06 69.2526 942.143 68.6018 943.419 68.4924C945.561 68.3082 947.437 69.7148 947.61 71.6345C947.781 73.5543 946.184 75.2599 944.043 75.4452C943.597 75.4834 943.164 75.4535 942.755 75.3634L942.745 75.3677C941.174 75.0407 940.174 73.8947 939.68 73.3826L937.62 77.1713C937.62 77.1713 938.26 77.8169 938.699 78.1395C939.139 78.4611 939.706 78.7778 940.159 78.9743C941.259 79.4439 942.454 79.7252 943.775 79.7252C943.928 79.7252 943.897 79.7252 944.057 79.7191C946.408 79.6207 948.503 78.7199 950.015 77.1766C951.446 75.7109 952.223 74.0375 952.23 72.0565V71.9974C952.229 71.8868 952.226 71.7762 952.222 71.6656ZM960.104 79.3157C959.035 79.3157 958.066 79.1915 957.196 78.9432C956.326 78.6949 955.583 78.3029 954.968 77.7652C954.35 77.2271 953.875 76.5424 953.539 75.712C953.204 74.8814 953.037 73.8802 953.037 72.7134V64.9404H957.926V72.6513C957.926 73.5254 958.135 74.1585 958.552 74.5535C958.97 74.9495 959.5 75.1472 960.144 75.1472C960.802 75.1472 961.335 74.963 961.747 74.5938C962.157 74.2245 962.363 73.6123 962.363 72.7517V64.9401H967.253V72.611C967.253 73.8192 967.081 74.8462 966.739 75.6913C966.396 76.5374 965.913 77.2284 965.292 77.7661C964.667 78.3042 963.915 78.6949 963.031 78.9443C962.146 79.1915 961.171 79.3157 960.104 79.3157Z" fill="#53465F"/>
</g>
<line x1="1062.36" y1="38" x2="1062.36" y2="108" stroke="#F1F1F3"/>
<g clip-path="url(#clip6_126_1077)">
<path fill-rule="evenodd" clip-rule="evenodd" d="M1154.22 80.0536C1150.51 82.7896 1145.13 84.2495 1140.5 84.2495C1134 84.2495 1128.16 81.847 1123.73 77.8513C1123.38 77.5371 1123.7 77.1089 1124.11 77.3536C1128.89 80.1314 1134.79 81.8025 1140.89 81.8025C1145 81.8025 1149.52 80.9517 1153.68 79.186C1154.31 78.9191 1154.84 79.5975 1154.22 80.0536Z" fill="#53465F"/>
<path fill-rule="evenodd" clip-rule="evenodd" d="M1155.77 78.2879C1155.29 77.6817 1152.63 78.0015 1151.43 78.1433C1151.07 78.1878 1151.01 77.8708 1151.34 77.6428C1153.46 76.1496 1156.95 76.5806 1157.35 77.0811C1157.76 77.5844 1157.25 81.074 1155.25 82.7396C1154.95 82.9954 1154.65 82.8592 1154.79 82.52C1155.24 81.4022 1156.24 78.8969 1155.77 78.2879Z" fill="#53465F"/>
<path fill-rule="evenodd" clip-rule="evenodd" d="M1151.52 67.1021V65.6507C1151.52 65.431 1151.69 65.2836 1151.89 65.2836H1158.38C1158.59 65.2836 1158.76 65.4338 1158.76 65.6507V66.8936C1158.76 67.1021 1158.58 67.3746 1158.27 67.8056L1154.9 72.6132C1156.15 72.5827 1157.47 72.769 1158.61 73.4085C1158.86 73.5531 1158.93 73.7644 1158.95 73.9729V75.5217C1158.95 75.7331 1158.72 75.9805 1158.48 75.8526C1156.48 74.8043 1153.82 74.6903 1151.61 75.8637C1151.39 75.9861 1151.15 75.7414 1151.15 75.5301V74.0591C1151.15 73.8228 1151.15 73.4196 1151.39 73.0609L1155.29 67.4664H1151.89C1151.69 67.4664 1151.52 67.319 1151.52 67.1021Z" fill="#53465F"/>
<path fill-rule="evenodd" clip-rule="evenodd" d="M1127.81 76.1585H1125.84C1125.65 76.1446 1125.5 76.0028 1125.48 75.8221V65.6757C1125.48 65.4727 1125.65 65.3114 1125.86 65.3114H1127.71C1127.9 65.3198 1128.05 65.4672 1128.07 65.6507V66.977H1128.1C1128.58 65.6952 1129.49 65.0973 1130.71 65.0973C1131.94 65.0973 1132.72 65.6952 1133.27 66.977C1133.75 65.6952 1134.84 65.0973 1136 65.0973C1136.83 65.0973 1137.74 65.4394 1138.29 66.2068C1138.92 67.0604 1138.79 68.3006 1138.79 69.3878L1138.79 75.7915C1138.79 75.9944 1138.62 76.1585 1138.41 76.1585H1136.43C1136.23 76.1446 1136.08 75.9861 1136.08 75.7915V70.4138C1136.08 69.9856 1136.11 68.9179 1136.02 68.5119C1135.87 67.8307 1135.43 67.6388 1134.86 67.6388C1134.38 67.6388 1133.88 67.9586 1133.68 68.4702C1133.47 68.9818 1133.49 69.8382 1133.49 70.4138V75.7915C1133.49 75.9944 1133.32 76.1585 1133.11 76.1585H1131.14C1130.94 76.1446 1130.78 75.9861 1130.78 75.7915L1130.78 70.4138C1130.78 69.2821 1130.96 67.6165 1129.56 67.6165C1128.14 67.6165 1128.2 69.2404 1128.2 70.4138V75.7915C1128.2 75.9944 1128.03 76.1585 1127.81 76.1585Z" fill="#53465F"/>
<path fill-rule="evenodd" clip-rule="evenodd" d="M1164.35 65.0973C1167.29 65.0973 1168.87 67.6165 1168.87 70.8198C1168.87 73.9146 1167.12 76.3698 1164.35 76.3698C1161.47 76.3698 1159.9 73.8506 1159.9 70.7113C1159.9 67.5526 1161.49 65.0973 1164.35 65.0973ZM1164.37 67.1689C1162.91 67.1689 1162.82 69.1542 1162.82 70.3916C1162.82 71.6317 1162.8 74.2788 1164.35 74.2788C1165.89 74.2788 1165.96 72.1433 1165.96 70.842C1165.96 69.9856 1165.92 68.9624 1165.66 68.1504C1165.44 67.4442 1165 67.1689 1164.37 67.1689Z" fill="#53465F"/>
<path fill-rule="evenodd" clip-rule="evenodd" d="M1172.68 76.1585H1170.71C1170.51 76.1446 1170.35 75.9861 1170.35 75.7915L1170.35 65.6423C1170.37 65.456 1170.53 65.3114 1170.73 65.3114H1172.56C1172.74 65.3198 1172.88 65.4366 1172.92 65.5951V67.1466H1172.95C1173.51 65.7591 1174.28 65.0973 1175.65 65.0973C1176.54 65.0973 1177.4 65.4171 1177.96 66.293C1178.47 67.1049 1178.47 68.4702 1178.47 69.4517V75.8387C1178.45 76.0167 1178.29 76.1585 1178.09 76.1585H1176.11C1175.93 76.1446 1175.78 76.0111 1175.76 75.8387V70.3276C1175.76 69.2182 1175.89 67.5943 1174.52 67.5943C1174.04 67.5943 1173.6 67.9169 1173.38 68.4062C1173.1 69.0263 1173.07 69.6436 1173.07 70.3276V75.7915C1173.06 75.9944 1172.89 76.1585 1172.68 76.1585Z" fill="#53465F"/>
<path fill-rule="evenodd" clip-rule="evenodd" d="M1146.34 71.3119C1146.34 72.0821 1146.36 72.7245 1145.97 73.4085C1145.65 73.9646 1145.15 74.3066 1144.6 74.3066C1143.84 74.3066 1143.4 73.7283 1143.4 72.8746C1143.4 71.1896 1144.91 70.8837 1146.34 70.8837V71.3119ZM1148.33 76.1307C1148.2 76.2475 1148.01 76.2558 1147.86 76.178C1147.21 75.633 1147.09 75.3799 1146.73 74.86C1145.65 75.9666 1144.88 76.2975 1143.47 76.2975C1141.81 76.2975 1140.51 75.2715 1140.51 73.2166C1140.51 71.6122 1141.38 70.5195 1142.62 69.9856C1143.69 69.5129 1145.19 69.4295 1146.34 69.2988V69.043C1146.34 68.5731 1146.37 68.0169 1146.1 67.611C1145.86 67.2467 1145.4 67.0966 1144.99 67.0966C1144.23 67.0966 1143.56 67.4831 1143.4 68.2839C1143.37 68.4618 1143.24 68.637 1143.05 68.6453L1141.14 68.4396C1140.98 68.4034 1140.8 68.2727 1140.84 68.0253C1141.28 65.7007 1143.39 65 1145.27 65C1146.23 65 1147.48 65.2558 1148.24 65.9843C1149.21 66.8825 1149.11 68.0809 1149.11 69.385V72.4659C1149.11 73.3918 1149.5 73.7978 1149.86 74.2983C1149.98 74.4762 1150.01 74.6903 1149.85 74.8238C1149.45 75.1603 1148.73 75.7859 1148.33 76.1362L1148.33 76.1307Z" fill="#53465F"/>
<path fill-rule="evenodd" clip-rule="evenodd" d="M1120.42 71.3119C1120.42 72.0821 1120.44 72.7245 1120.05 73.4085C1119.74 73.9646 1119.24 74.3066 1118.68 74.3066C1117.92 74.3066 1117.48 73.7282 1117.48 72.8746C1117.48 71.1896 1118.99 70.8837 1120.42 70.8837V71.3119ZM1122.41 76.1307C1122.28 76.2475 1122.09 76.2558 1121.95 76.1779C1121.29 75.633 1121.17 75.3799 1120.81 74.8599C1119.73 75.9666 1118.96 76.2975 1117.55 76.2975C1115.89 76.2975 1114.6 75.2715 1114.6 73.2166C1114.6 71.6122 1115.47 70.5195 1116.7 69.9856C1117.78 69.5129 1119.27 69.4295 1120.42 69.2988V69.043C1120.42 68.573 1120.46 68.0169 1120.18 67.611C1119.94 67.2467 1119.48 67.0966 1119.07 67.0966C1118.32 67.0966 1117.65 67.4831 1117.48 68.2839C1117.45 68.4618 1117.32 68.637 1117.14 68.6453L1115.22 68.4396C1115.06 68.4034 1114.88 68.2727 1114.93 68.0253C1115.37 65.7007 1117.47 65 1119.35 65C1120.31 65 1121.57 65.2558 1122.33 65.9843C1123.29 66.8825 1123.2 68.0809 1123.2 69.385V72.4659C1123.2 73.3918 1123.58 73.7978 1123.94 74.2983C1124.07 74.4762 1124.1 74.6903 1123.94 74.8238C1123.53 75.1603 1122.81 75.7859 1122.42 76.1362L1122.41 76.1307Z" fill="#53465F"/>
</g>
<line x1="1232" y1="38" x2="1232" y2="108" stroke="#F1F1F3"/>
</g>
<rect x="0.5" y="0.5" width="1239" height="145" stroke="#F1F1F3"/>
<defs>
<clipPath id="clip0_126_1077">
<rect width="1240" height="146" fill="white"/>
</clipPath>
<clipPath id="clip1_126_1077">
<rect width="57.1666" height="28" fill="white" transform="translate(269.881 58)"/>
</clipPath>
<clipPath id="clip2_126_1077">
<rect width="81.6667" height="28" fill="white" transform="translate(427.274 58)"/>
</clipPath>
<clipPath id="clip3_126_1077">
<rect width="75.25" height="28" fill="white" transform="translate(600.125 58)"/>
</clipPath>
<clipPath id="clip4_126_1077">
<rect width="77.5833" height="28" fill="white" transform="translate(768.601 58)"/>
</clipPath>
<clipPath id="clip5_126_1077">
<rect width="112" height="15.7696" fill="white" transform="translate(921.5 64)"/>
</clipPath>
<clipPath id="clip6_126_1077">
<rect width="64.1666" height="28" fill="white" transform="translate(1114.6 58)"/>
</clipPath>
</defs>
</svg>
